<svg xmlns="http://www.w3.org/2000/svg" version="1.1" xmlns:xlink="http://www.w3.org/1999/xlink" xmlns:svgjs="http://svgjs.dev/svgjs" width="1000" height="202" viewBox="0 0 1000 202"><g transform="matrix(1,0,0,1,-0.6060606060606233,0.5104046931681125)"><svg viewBox="0 0 396 80" data-background-color="#282634" preserveAspectRatio="xMidYMid meet" height="202" width="1000" xmlns="http://www.w3.org/2000/svg" xmlns:xlink="http://www.w3.org/1999/xlink"><g id="tight-bounds" transform="matrix(1,0,0,1,0.2400000000000091,-0.20214047254182788)"><svg viewBox="0 0 395.52 80.40428094508368" height="80.40428094508368" width="395.52"><g><svg viewBox="0 0 508.3916089297959 103.34967069810483" height="80.40428094508368" width="395.52"><g transform="matrix(1,0,0,1,0,14.283492838884243)"><svg viewBox="0 0 395.52 74.78268502033634" height="74.78268502033634" width="395.52"><g><svg viewBox="0 0 395.52 74.78268502033634" height="74.78268502033634" width="395.52"><g><svg viewBox="0 0 395.52 40.334206915108304" height="40.334206915108304" width="395.52"><g transform="matrix(1,0,0,1,0,0)"><svg width="395.52" viewBox="2.65 -37.3 371.62 37.9" height="40.334206915108304" data-palette-color="#ff4057"><path d="M27.6-28.05L27.6-28.05Q27.6-25.9 26.6-24.18 25.6-22.45 23.9-21.35 22.2-20.25 20.15-19.95L20.15-19.95Q22.6-19.55 24.68-18.23 26.75-16.9 28.03-14.85 29.3-12.8 29.3-10.15L29.3-10.15Q29.3-7.35 28.18-5.4 27.05-3.45 25.15-2.25 23.25-1.05 20.9-0.53 18.55 0 16.15 0L16.15 0 3.35 0 3.35-33.55Q3.35-33.6 3.18-34.3 3-35 2.85-35.75 2.7-36.5 2.65-36.6L2.65-36.6 15.65-36.6Q17.8-36.6 19.93-36.23 22.05-35.85 23.78-34.93 25.5-34 26.55-32.33 27.6-30.65 27.6-28.05ZM20.35-27.1L20.35-27.1Q20.35-28.7 19.7-29.7 19.05-30.7 17.9-31.18 16.75-31.65 15.25-31.65L15.25-31.65 10.25-31.65 10.25-22.3 15.4-22.3Q17.5-22.3 18.93-23.63 20.35-24.95 20.35-27.1ZM22.05-10.95L22.05-10.95Q22.05-13.2 20.9-14.63 19.75-16.05 17.95-16.7 16.15-17.35 14.15-17.35L14.15-17.35 10.25-17.35 10.25-4.95 15.7-4.95Q17.55-4.95 18.98-5.65 20.4-6.35 21.23-7.7 22.05-9.05 22.05-10.95ZM48.95 0.55L48.95 0.55Q44.75 0.55 41.52-0.9 38.3-2.35 36.1-4.93 33.9-7.5 32.77-10.95 31.65-14.4 31.65-18.35L31.65-18.35Q31.65-22.35 32.77-25.78 33.9-29.2 36.12-31.75 38.35-34.3 41.57-35.73 44.8-37.15 49-37.15L49-37.15Q53.3-37.15 56.57-35.75 59.85-34.35 62.07-31.8 64.3-29.25 65.45-25.8 66.6-22.35 66.6-18.25L66.6-18.25Q66.6-14.2 65.4-10.78 64.2-7.35 61.92-4.8 59.65-2.25 56.37-0.85 53.1 0.55 48.95 0.55ZM49.15-4.2L49.15-4.2Q52.05-4.2 53.97-5.43 55.9-6.65 57.05-8.68 58.2-10.7 58.7-13.15 59.2-15.6 59.2-18.05L59.2-18.05Q59.2-20.5 58.72-23.03 58.25-25.55 57.1-27.68 55.95-29.8 53.97-31.1 52-32.4 49.05-32.4L49.05-32.4Q46.15-32.4 44.22-31.18 42.3-29.95 41.15-27.9 40-25.85 39.5-23.4 39-20.95 39-18.55L39-18.55Q39-16.1 39.5-13.58 40-11.05 41.15-8.93 42.3-6.8 44.25-5.5 46.2-4.2 49.15-4.2ZM70.14-36.55L78.34-36.55 92.75-14.65Q93.3-13.85 93.8-13.03 94.3-12.2 94.8-11.35L94.8-11.35Q94.75-12.3 94.62-13.28 94.5-14.25 94.5-15.2L94.5-15.2 94.5-36.55 100.05-36.55 100.05 0.25 94.65 0.25 78.2-24.85Q77.7-25.7 77.15-26.55 76.59-27.4 76.09-28.2L76.09-28.2Q76.2-27.4 76.3-26.55 76.39-25.7 76.39-24.85L76.39-24.85 76.39 0 70.84 0 70.84-33.5 70.14-36.55ZM137.24-18.25L137.24-18.25Q137.24-12.95 135.09-8.83 132.94-4.7 128.97-2.35 124.99 0 119.59 0L119.59 0 106.59 0 106.59-33.55Q106.59-33.6 106.42-34.3 106.24-35 106.04-35.75 105.84-36.5 105.79-36.6L105.79-36.6 119.64-36.6Q125.24-36.6 129.17-34.27 133.09-31.95 135.17-27.83 137.24-23.7 137.24-18.25ZM129.84-18.05L129.84-18.05Q129.84-20.6 129.27-23.03 128.69-25.45 127.42-27.4 126.14-29.35 124.12-30.5 122.09-31.65 119.19-31.65L119.19-31.65 113.49-31.65 113.49-4.95 119.29-4.95Q123.09-4.95 125.42-6.83 127.74-8.7 128.79-11.7 129.84-14.7 129.84-18.05ZM141.54-33.55L140.79-36.6 163.79-36.6 163.79-31.65 148.39-31.65 148.39-21.3 160.19-21.3 160.19-16.35 148.39-16.35 148.39-4.95 163.79-4.95 163.79 0 141.54 0 141.54-33.55ZM171.69-22.45L170.64-22.45Q170.59-22.6 170.31-23.45 170.04-24.3 169.69-25.33 169.34-26.35 169.06-27.15 168.79-27.95 168.79-27.95L168.79-27.95 168.79-36.6 173.49-36.6 173.49-27.95 171.69-22.45ZM190.84-37.2L190.84-37.2Q193.63-37.2 196.31-36.43 198.99-35.65 201.13-34.2L201.13-34.2 197.69-29.9Q196.34-31.1 194.44-31.75 192.53-32.4 190.78-32.4L190.78-32.4Q188.84-32.4 187.24-31.38 185.63-30.35 185.63-28.2L185.63-28.2Q185.63-26.75 186.36-25.7 187.09-24.65 188.31-23.88 189.53-23.1 191.03-22.35L191.03-22.35Q192.78-21.5 194.66-20.6 196.53-19.7 198.13-18.43 199.74-17.15 200.74-15.3 201.74-13.45 201.74-10.75L201.74-10.75Q201.74-7.1 199.94-4.55 198.13-2 195.21-0.7 192.28 0.6 188.88 0.6L188.88 0.6Q185.84 0.6 182.81-0.08 179.78-0.75 177.13-2.3L177.13-2.3 179.49-7.85Q181.24-6.25 183.53-5.23 185.84-4.2 188.24-4.2L188.24-4.2Q189.84-4.2 191.24-4.8 192.63-5.4 193.53-6.58 194.44-7.75 194.44-9.5L194.44-9.5Q194.44-11.3 193.44-12.48 192.44-13.65 190.84-14.55 189.24-15.45 187.38-16.3L187.38-16.3Q185.74-17.05 184.13-17.93 182.53-18.8 181.24-19.95 179.94-21.1 179.13-22.78 178.34-24.45 178.34-26.75L178.34-26.75Q178.34-30.4 180.13-32.7 181.94-35 184.78-36.1 187.63-37.2 190.84-37.2ZM232.73 0.6L232.73 0.6Q228.38 0.6 225.11-0.83 221.83-2.25 219.63-4.85 217.43-7.45 216.33-10.95 215.23-14.45 215.23-18.55L215.23-18.55Q215.23-22.55 216.43-25.95 217.63-29.35 219.91-31.9 222.18-34.45 225.43-35.88 228.68-37.3 232.78-37.3L232.78-37.3Q234.58-37.3 236.81-36.93 239.03-36.55 241.13-35.77 243.23-35 244.63-33.75L244.63-33.75 241.03-29.15Q239.63-30.75 237.36-31.6 235.08-32.45 233.03-32.45L233.03-32.45Q230.13-32.45 228.13-31.28 226.13-30.1 224.93-28.1 223.73-26.1 223.21-23.68 222.68-21.25 222.68-18.7L222.68-18.7Q222.68-14.2 223.96-10.98 225.23-7.75 227.63-6.03 230.03-4.3 233.38-4.3L233.38-4.3Q235.48-4.3 237.83-4.88 240.18-5.45 242.78-6.8L242.78-6.8 244.83-3.1Q242.88-1.85 241.03-1.03 239.18-0.2 237.18 0.2 235.18 0.6 232.73 0.6ZM248.73-33.55L248.08-36.6 255.68-36.6 255.68-4.95 270.03-4.95 270.03 0 248.73 0 248.73-33.55ZM286.32 0.55L286.32 0.55Q282.13 0.55 278.9-0.9 275.68-2.35 273.47-4.93 271.27-7.5 270.15-10.95 269.02-14.4 269.02-18.35L269.02-18.35Q269.02-22.35 270.15-25.78 271.27-29.2 273.5-31.75 275.72-34.3 278.95-35.73 282.18-37.15 286.38-37.15L286.38-37.15Q290.68-37.15 293.95-35.75 297.22-34.35 299.45-31.8 301.68-29.25 302.82-25.8 303.97-22.35 303.97-18.25L303.97-18.25Q303.97-14.2 302.77-10.78 301.57-7.35 299.3-4.8 297.02-2.25 293.75-0.85 290.47 0.55 286.32 0.55ZM286.52-4.2L286.52-4.2Q289.43-4.2 291.35-5.43 293.27-6.65 294.43-8.68 295.57-10.7 296.07-13.15 296.57-15.6 296.57-18.05L296.57-18.05Q296.57-20.5 296.1-23.03 295.63-25.55 294.47-27.68 293.32-29.8 291.35-31.1 289.38-32.4 286.43-32.4L286.43-32.4Q283.52-32.4 281.6-31.18 279.68-29.95 278.52-27.9 277.38-25.85 276.88-23.4 276.38-20.95 276.38-18.55L276.38-18.55Q276.38-16.1 276.88-13.58 277.38-11.05 278.52-8.93 279.68-6.8 281.63-5.5 283.57-4.2 286.52-4.2ZM307.52-36.6L315.37-36.6 315.37-12.25Q315.37-8.6 317.57-6.4 319.77-4.2 323.42-4.2L323.42-4.2Q327.12-4.2 329.3-6.35 331.47-8.5 331.47-12.25L331.47-12.25 331.47-36.6 337.12-36.6 337.12-13.9Q337.12-8.65 335.22-5.48 333.32-2.3 330.07-0.88 326.82 0.55 322.72 0.55L322.72 0.55Q315.77 0.55 312.05-3.2 308.32-6.95 308.32-13.9L308.32-13.9 308.32-33.6 307.52-36.6ZM374.27-18.25L374.27-18.25Q374.27-12.95 372.12-8.83 369.97-4.7 366-2.35 362.02 0 356.62 0L356.62 0 343.62 0 343.62-33.55Q343.62-33.6 343.45-34.3 343.27-35 343.07-35.75 342.87-36.5 342.82-36.6L342.82-36.6 356.67-36.6Q362.27-36.6 366.2-34.27 370.12-31.95 372.2-27.83 374.27-23.7 374.27-18.25ZM366.87-18.05L366.87-18.05Q366.87-20.6 366.3-23.03 365.72-25.45 364.45-27.4 363.17-29.35 361.15-30.5 359.12-31.65 356.22-31.65L356.22-31.65 350.52-31.65 350.52-4.95 356.32-4.95Q360.12-4.95 362.45-6.83 364.77-8.7 365.82-11.7 366.87-14.7 366.87-18.05Z" opacity="1" transform="matrix(1,0,0,1,0,0)" fill="#ff4057" class="undefined-text-0" data-fill-palette-color="primary" id="text-0"></path></svg></g></svg></g><g transform="matrix(1,0,0,1,312.36882547846545,49.85614514679941)"><svg viewBox="0 0 83.15117452153453 24.92653987353693" height="24.92653987353693" width="83.15117452153453"><g transform="matrix(1,0,0,1,0,0)"><svg width="83.15117452153453" viewBox="4.15 -39.35 132.59 39.75" height="24.92653987353693" data-palette-color="#dcdcdc"><path d="M4.15 0L4.15-35 20.05-35Q25.75-35 30.13-32.83 34.5-30.65 36.93-26.7 39.35-22.75 39.35-17.5L39.35-17.5Q39.35-12.25 36.93-8.3 34.5-4.35 30.13-2.18 25.75 0 20.05 0L20.05 0 4.15 0ZM12.25-6.65L19.65-6.65Q24.9-6.65 28.03-9.58 31.15-12.5 31.15-17.5L31.15-17.5Q31.15-22.5 28.03-25.43 24.9-28.35 19.65-28.35L19.65-28.35 12.25-28.35 12.25-6.65ZM52.35-23.35Q53.75-25.3 56.12-26.3 58.5-27.3 61.6-27.3L61.6-27.3 61.6-20.1Q60.3-20.2 59.85-20.2L59.85-20.2Q56.5-20.2 54.6-18.32 52.7-16.45 52.7-12.7L52.7-12.7 52.7 0 44.9 0 44.9-26.9 52.35-26.9 52.35-23.35ZM66.25 0L66.25-26.9 74.05-26.9 74.05 0 66.25 0ZM70.15-30.65Q68-30.65 66.65-31.9 65.3-33.15 65.3-35L65.3-35Q65.3-36.85 66.65-38.1 68-39.35 70.15-39.35L70.15-39.35Q72.3-39.35 73.65-38.15 75-36.95 75-35.15L75-35.15Q75-33.2 73.65-31.93 72.3-30.65 70.15-30.65L70.15-30.65ZM100.49-26.9L107.99-26.9 96.64 0 88.59 0 77.29-26.9 85.34-26.9 92.79-8.6 100.49-26.9ZM123.99-5.85Q126.09-5.85 127.72-6.48 129.34-7.1 130.74-8.45L130.74-8.45 134.89-3.95Q131.09 0.4 123.79 0.4L123.79 0.4Q119.24 0.4 115.74-1.38 112.24-3.15 110.34-6.3 108.44-9.45 108.44-13.45L108.44-13.45Q108.44-17.4 110.32-20.58 112.19-23.75 115.47-25.53 118.74-27.3 122.84-27.3L122.84-27.3Q126.69-27.3 129.84-25.68 132.99-24.05 134.87-20.98 136.74-17.9 136.74-13.7L136.74-13.7 116.84-9.85Q117.69-7.85 119.52-6.85 121.34-5.85 123.99-5.85L123.99-5.85ZM122.84-21.4Q119.89-21.4 118.04-19.5 116.19-17.6 116.09-14.25L116.09-14.25 129.19-16.8Q128.64-18.9 126.94-20.15 125.24-21.4 122.84-21.4L122.84-21.4Z" opacity="1" transform="matrix(1,0,0,1,0,0)" fill="#dcdcdc" class="undefined-text-1" data-fill-palette-color="secondary" id="text-1"></path></svg></g></svg></g></svg></g></svg></g><g transform="matrix(1,0,0,1,405.04193823169106,0)"><svg viewBox="0 0 103.34967069810483 103.34967069810483" height="103.34967069810483" width="103.34967069810483"><g data-palette-color="#dcdcdc"><rect width="28.24890999081532" height="103.34967069810483" fill="#dcdcdc" stroke="transparent" data-fill-palette-color="accent" x="0" fill-opacity="1"></rect><rect width="28.24890999081532" height="103.34967069810483" fill="#dcdcdc" stroke="transparent" data-fill-palette-color="accent" x="34.44989023270161" fill-opacity="0.75"></rect><rect width="28.24890999081532" height="103.34967069810483" fill="#dcdcdc" stroke="transparent" data-fill-palette-color="accent" x="68.89978046540323" fill-opacity="0.5"></rect></g></svg></g></svg></g><defs></defs></svg><rect width="395.52" height="80.40428094508368" fill="none" stroke="none" visibility="hidden"></rect></g></svg></g></svg>