<?xml version="1.0" encoding="UTF-8"?>
<svg xmlns="http://www.w3.org/2000/svg" xmlns:xlink="http://www.w3.org/1999/xlink" width="67px" height="42px" viewBox="0 0 67 42" version="1.1">
<defs>
<clipPath id="clip1">
  <path d="M 12.804688 17.085938 L 54.113281 17.085938 L 54.113281 21.324219 L 12.804688 21.324219 Z M 12.804688 17.085938 "/>
</clipPath>
<clipPath id="clip2">
  <path d="M 12.804688 22.328125 L 54.113281 22.328125 L 54.113281 24.945312 L 12.804688 24.945312 Z M 12.804688 22.328125 "/>
</clipPath>
<clipPath id="clip3">
  <path d="M 34 5 L 66.878906 5 L 66.878906 38 L 34 38 Z M 34 5 "/>
</clipPath>
<clipPath id="clip4">
  <path d="M 34 4 L 66.878906 4 L 66.878906 38 L 34 38 Z M 34 4 "/>
</clipPath>
</defs>
<g id="surface1">
<g clip-path="url(#clip1)" clip-rule="nonzero">
<path style=" stroke:none;fill-rule:nonzero;fill:rgb(100%,25.098039%,34.117647%);fill-opacity:1;" d="M 15.582031 18.121094 C 15.582031 18.28125 15.542969 18.425781 15.46875 18.554688 C 15.394531 18.683594 15.296875 18.789062 15.167969 18.871094 C 15.042969 18.953125 14.90625 19.003906 14.753906 19.027344 C 14.933594 19.058594 15.101562 19.121094 15.257812 19.21875 C 15.410156 19.320312 15.535156 19.445312 15.628906 19.597656 C 15.722656 19.75 15.769531 19.925781 15.769531 20.125 C 15.769531 20.332031 15.726562 20.511719 15.644531 20.65625 C 15.5625 20.800781 15.449219 20.917969 15.308594 21.007812 C 15.167969 21.097656 15.011719 21.160156 14.835938 21.199219 C 14.660156 21.238281 14.484375 21.257812 14.308594 21.257812 L 12.886719 21.257812 L 12.886719 17.507812 C 12.886719 17.503906 12.878906 17.476562 12.867188 17.421875 C 12.851562 17.371094 12.839844 17.316406 12.828125 17.261719 C 12.820312 17.207031 12.8125 17.171875 12.808594 17.167969 L 14.253906 17.167969 C 14.410156 17.167969 14.570312 17.179688 14.726562 17.207031 C 14.886719 17.234375 15.027344 17.285156 15.15625 17.351562 C 15.285156 17.421875 15.386719 17.519531 15.464844 17.644531 C 15.542969 17.769531 15.582031 17.929688 15.582031 18.121094 Z M 14.773438 18.226562 C 14.773438 18.109375 14.75 18.011719 14.703125 17.9375 C 14.65625 17.863281 14.585938 17.808594 14.503906 17.773438 C 14.417969 17.738281 14.320312 17.71875 14.207031 17.71875 L 13.652344 17.71875 L 13.652344 18.765625 L 14.226562 18.765625 C 14.378906 18.765625 14.511719 18.714844 14.617188 18.617188 C 14.722656 18.519531 14.773438 18.390625 14.773438 18.226562 Z M 14.964844 20.035156 C 14.964844 19.867188 14.921875 19.730469 14.835938 19.621094 C 14.75 19.515625 14.640625 19.441406 14.507812 19.390625 C 14.375 19.34375 14.234375 19.320312 14.085938 19.320312 L 13.652344 19.320312 L 13.652344 20.707031 L 14.257812 20.707031 C 14.394531 20.707031 14.515625 20.679688 14.621094 20.628906 C 14.726562 20.574219 14.8125 20.5 14.871094 20.398438 C 14.933594 20.296875 14.964844 20.175781 14.964844 20.035156 Z M 17.953125 21.320312 C 17.640625 21.320312 17.367188 21.265625 17.128906 21.160156 C 16.890625 21.050781 16.6875 20.898438 16.523438 20.707031 C 16.363281 20.515625 16.238281 20.292969 16.15625 20.035156 C 16.074219 19.777344 16.03125 19.5 16.03125 19.207031 C 16.03125 18.910156 16.074219 18.632812 16.15625 18.375 C 16.238281 18.121094 16.363281 17.898438 16.527344 17.707031 C 16.691406 17.519531 16.894531 17.371094 17.132812 17.261719 C 17.371094 17.15625 17.648438 17.105469 17.960938 17.105469 C 18.277344 17.105469 18.558594 17.15625 18.800781 17.261719 C 19.042969 17.367188 19.246094 17.511719 19.410156 17.703125 C 19.578125 17.894531 19.703125 18.117188 19.789062 18.375 C 19.871094 18.632812 19.914062 18.914062 19.914062 19.21875 C 19.914062 19.519531 19.871094 19.796875 19.78125 20.054688 C 19.691406 20.308594 19.5625 20.53125 19.394531 20.722656 C 19.226562 20.914062 19.019531 21.058594 18.777344 21.164062 C 18.535156 21.269531 18.261719 21.320312 17.953125 21.320312 Z M 17.976562 20.789062 C 18.191406 20.789062 18.371094 20.742188 18.511719 20.652344 C 18.65625 20.5625 18.769531 20.441406 18.855469 20.289062 C 18.9375 20.136719 19 19.972656 19.039062 19.789062 C 19.074219 19.605469 19.09375 19.421875 19.09375 19.242188 C 19.09375 19.058594 19.074219 18.871094 19.039062 18.683594 C 19.003906 18.496094 18.945312 18.324219 18.859375 18.164062 C 18.773438 18.003906 18.660156 17.878906 18.511719 17.78125 C 18.367188 17.683594 18.183594 17.636719 17.964844 17.636719 C 17.75 17.636719 17.570312 17.679688 17.429688 17.773438 C 17.285156 17.863281 17.171875 17.984375 17.085938 18.140625 C 17 18.292969 16.941406 18.460938 16.902344 18.640625 C 16.867188 18.824219 16.847656 19.003906 16.847656 19.183594 C 16.847656 19.367188 16.867188 19.550781 16.902344 19.742188 C 16.941406 19.929688 17 20.101562 17.085938 20.261719 C 17.171875 20.417969 17.285156 20.546875 17.429688 20.644531 C 17.574219 20.742188 17.757812 20.789062 17.976562 20.789062 Z M 20.308594 17.171875 L 21.21875 17.171875 L 22.820312 19.621094 C 22.863281 19.679688 22.902344 19.742188 22.9375 19.800781 C 22.976562 19.863281 23.011719 19.925781 23.050781 19.988281 C 23.046875 19.917969 23.039062 19.847656 23.03125 19.773438 C 23.019531 19.703125 23.015625 19.628906 23.015625 19.558594 L 23.015625 17.171875 L 23.632812 17.171875 L 23.632812 21.289062 L 23.03125 21.289062 L 21.203125 18.480469 C 21.167969 18.417969 21.128906 18.351562 21.085938 18.289062 C 21.046875 18.226562 21.007812 18.164062 20.96875 18.105469 C 20.976562 18.164062 20.984375 18.226562 20.992188 18.289062 C 21 18.351562 21.003906 18.417969 21.003906 18.480469 L 21.003906 21.257812 L 20.386719 21.257812 L 20.386719 17.511719 Z M 27.765625 19.21875 C 27.765625 19.613281 27.6875 19.964844 27.527344 20.273438 C 27.367188 20.578125 27.140625 20.820312 26.847656 20.996094 C 26.550781 21.171875 26.203125 21.257812 25.804688 21.257812 L 24.359375 21.257812 L 24.359375 17.507812 C 24.359375 17.503906 24.355469 17.476562 24.339844 17.421875 C 24.328125 17.371094 24.3125 17.316406 24.300781 17.261719 C 24.285156 17.207031 24.273438 17.171875 24.269531 17.167969 L 25.808594 17.167969 C 26.226562 17.167969 26.578125 17.253906 26.871094 17.425781 C 27.160156 17.597656 27.382812 17.839844 27.535156 18.148438 C 27.691406 18.453125 27.765625 18.8125 27.765625 19.21875 Z M 26.945312 19.242188 C 26.945312 19.050781 26.921875 18.863281 26.878906 18.683594 C 26.835938 18.503906 26.769531 18.339844 26.675781 18.195312 C 26.582031 18.050781 26.457031 17.933594 26.308594 17.847656 C 26.15625 17.761719 25.976562 17.71875 25.761719 17.71875 L 25.125 17.71875 L 25.125 20.707031 L 25.773438 20.707031 C 26.054688 20.707031 26.28125 20.636719 26.453125 20.496094 C 26.625 20.355469 26.75 20.175781 26.828125 19.949219 C 26.90625 19.726562 26.945312 19.492188 26.945312 19.242188 Z M 28.246094 17.507812 L 28.160156 17.167969 L 30.71875 17.167969 L 30.71875 17.71875 L 29.003906 17.71875 L 29.003906 18.878906 L 30.316406 18.878906 L 30.316406 19.429688 L 29.003906 19.429688 L 29.003906 20.707031 L 30.71875 20.707031 L 30.71875 21.257812 L 28.246094 21.257812 Z M 31.59375 18.75 L 31.480469 18.75 C 31.476562 18.738281 31.460938 18.699219 31.441406 18.636719 C 31.421875 18.574219 31.398438 18.503906 31.375 18.425781 C 31.347656 18.351562 31.324219 18.28125 31.304688 18.222656 C 31.28125 18.164062 31.273438 18.132812 31.273438 18.132812 L 31.273438 17.167969 L 31.796875 17.167969 L 31.796875 18.132812 Z M 33.722656 17.097656 C 33.929688 17.097656 34.132812 17.128906 34.332031 17.183594 C 34.53125 17.242188 34.710938 17.328125 34.867188 17.433594 L 34.484375 17.914062 C 34.386719 17.824219 34.265625 17.757812 34.125 17.707031 C 33.984375 17.660156 33.847656 17.636719 33.71875 17.636719 C 33.574219 17.636719 33.441406 17.671875 33.324219 17.75 C 33.203125 17.828125 33.144531 17.945312 33.144531 18.105469 C 33.144531 18.214844 33.171875 18.308594 33.226562 18.386719 C 33.28125 18.464844 33.351562 18.53125 33.441406 18.589844 C 33.53125 18.648438 33.632812 18.703125 33.746094 18.757812 C 33.875 18.824219 34.007812 18.886719 34.148438 18.957031 C 34.285156 19.023438 34.414062 19.101562 34.535156 19.199219 C 34.652344 19.292969 34.75 19.410156 34.824219 19.546875 C 34.898438 19.6875 34.933594 19.855469 34.933594 20.058594 C 34.933594 20.328125 34.867188 20.558594 34.734375 20.75 C 34.601562 20.941406 34.425781 21.082031 34.210938 21.179688 C 33.992188 21.277344 33.757812 21.328125 33.507812 21.328125 C 33.28125 21.328125 33.054688 21.300781 32.832031 21.25 C 32.605469 21.199219 32.394531 21.117188 32.199219 21 L 32.460938 20.382812 C 32.59375 20.5 32.742188 20.597656 32.910156 20.675781 C 33.082031 20.75 33.257812 20.789062 33.433594 20.789062 C 33.554688 20.789062 33.664062 20.765625 33.769531 20.722656 C 33.871094 20.675781 33.957031 20.609375 34.023438 20.523438 C 34.089844 20.4375 34.125 20.328125 34.125 20.195312 C 34.125 20.0625 34.085938 19.953125 34.011719 19.863281 C 33.9375 19.777344 33.84375 19.699219 33.722656 19.632812 C 33.605469 19.566406 33.476562 19.5 33.339844 19.4375 C 33.21875 19.378906 33.097656 19.320312 32.976562 19.253906 C 32.859375 19.1875 32.753906 19.113281 32.65625 19.027344 C 32.5625 18.941406 32.484375 18.835938 32.421875 18.710938 C 32.363281 18.585938 32.335938 18.4375 32.335938 18.269531 C 32.335938 17.996094 32.402344 17.773438 32.535156 17.601562 C 32.667969 17.429688 32.839844 17.304688 33.050781 17.222656 C 33.261719 17.140625 33.484375 17.097656 33.722656 17.097656 Z M 38.378906 21.328125 C 38.058594 21.328125 37.773438 21.273438 37.53125 21.167969 C 37.289062 21.058594 37.085938 20.910156 36.921875 20.714844 C 36.761719 20.523438 36.636719 20.296875 36.558594 20.035156 C 36.476562 19.773438 36.433594 19.492188 36.433594 19.183594 C 36.433594 18.886719 36.480469 18.609375 36.566406 18.355469 C 36.65625 18.105469 36.785156 17.882812 36.953125 17.691406 C 37.125 17.5 37.328125 17.351562 37.570312 17.246094 C 37.808594 17.140625 38.082031 17.085938 38.386719 17.085938 C 38.519531 17.085938 38.667969 17.101562 38.832031 17.128906 C 38.996094 17.15625 39.15625 17.199219 39.3125 17.257812 C 39.46875 17.316406 39.597656 17.390625 39.703125 17.484375 L 39.300781 18 C 39.199219 17.878906 39.0625 17.789062 38.894531 17.726562 C 38.726562 17.660156 38.566406 17.628906 38.414062 17.628906 C 38.199219 17.628906 38.015625 17.671875 37.867188 17.761719 C 37.71875 17.847656 37.601562 17.96875 37.511719 18.117188 C 37.425781 18.265625 37.359375 18.429688 37.320312 18.609375 C 37.28125 18.792969 37.261719 18.976562 37.261719 19.167969 C 37.261719 19.503906 37.308594 19.792969 37.40625 20.03125 C 37.5 20.273438 37.636719 20.457031 37.8125 20.585938 C 37.992188 20.714844 38.203125 20.777344 38.453125 20.777344 C 38.609375 20.777344 38.773438 20.757812 38.945312 20.714844 C 39.121094 20.671875 39.304688 20.597656 39.496094 20.5 L 39.726562 20.914062 C 39.582031 21.003906 39.4375 21.082031 39.300781 21.144531 C 39.164062 21.207031 39.023438 21.25 38.875 21.28125 C 38.726562 21.3125 38.5625 21.328125 38.378906 21.328125 Z M 40.15625 17.507812 L 40.085938 17.167969 L 40.929688 17.167969 L 40.929688 20.707031 L 42.527344 20.707031 L 42.527344 21.257812 L 40.15625 21.257812 Z M 44.335938 21.320312 C 44.027344 21.320312 43.75 21.265625 43.511719 21.160156 C 43.273438 21.050781 43.070312 20.898438 42.90625 20.707031 C 42.746094 20.515625 42.621094 20.292969 42.539062 20.035156 C 42.453125 19.777344 42.414062 19.5 42.414062 19.207031 C 42.414062 18.910156 42.453125 18.632812 42.539062 18.375 C 42.621094 18.121094 42.746094 17.898438 42.910156 17.707031 C 43.074219 17.519531 43.277344 17.371094 43.515625 17.261719 C 43.757812 17.15625 44.03125 17.105469 44.34375 17.105469 C 44.660156 17.105469 44.941406 17.15625 45.183594 17.261719 C 45.425781 17.367188 45.628906 17.511719 45.796875 17.703125 C 45.960938 17.894531 46.085938 18.117188 46.167969 18.375 C 46.253906 18.632812 46.296875 18.914062 46.296875 19.21875 C 46.296875 19.519531 46.253906 19.796875 46.164062 20.054688 C 46.074219 20.308594 45.945312 20.53125 45.777344 20.722656 C 45.609375 20.914062 45.402344 21.058594 45.160156 21.164062 C 44.917969 21.269531 44.644531 21.320312 44.335938 21.320312 Z M 44.359375 20.789062 C 44.574219 20.789062 44.753906 20.742188 44.894531 20.652344 C 45.039062 20.5625 45.152344 20.441406 45.238281 20.289062 C 45.320312 20.136719 45.382812 19.972656 45.417969 19.789062 C 45.457031 19.605469 45.476562 19.421875 45.476562 19.242188 C 45.476562 19.058594 45.457031 18.871094 45.421875 18.683594 C 45.386719 18.496094 45.328125 18.324219 45.242188 18.164062 C 45.15625 18.003906 45.042969 17.878906 44.894531 17.78125 C 44.75 17.683594 44.566406 17.636719 44.347656 17.636719 C 44.132812 17.636719 43.953125 17.679688 43.8125 17.773438 C 43.667969 17.863281 43.554688 17.984375 43.46875 18.140625 C 43.382812 18.292969 43.324219 18.460938 43.285156 18.640625 C 43.25 18.824219 43.230469 19.003906 43.230469 19.183594 C 43.230469 19.367188 43.25 19.550781 43.285156 19.742188 C 43.324219 19.929688 43.382812 20.101562 43.46875 20.261719 C 43.554688 20.417969 43.671875 20.546875 43.816406 20.644531 C 43.957031 20.742188 44.140625 20.789062 44.359375 20.789062 Z M 46.691406 17.167969 L 47.566406 17.167969 L 47.566406 19.890625 C 47.566406 20.160156 47.644531 20.378906 47.808594 20.542969 C 47.972656 20.707031 48.1875 20.789062 48.460938 20.789062 C 48.734375 20.789062 48.953125 20.710938 49.113281 20.550781 C 49.273438 20.390625 49.355469 20.167969 49.355469 19.890625 L 49.355469 17.167969 L 49.980469 17.167969 L 49.980469 19.703125 C 49.980469 20.097656 49.910156 20.410156 49.769531 20.644531 C 49.628906 20.882812 49.4375 21.054688 49.199219 21.160156 C 48.957031 21.265625 48.683594 21.320312 48.382812 21.320312 C 47.867188 21.320312 47.472656 21.179688 47.195312 20.902344 C 46.917969 20.621094 46.78125 20.222656 46.78125 19.703125 L 46.78125 17.5 Z M 54.109375 19.21875 C 54.109375 19.613281 54.03125 19.964844 53.871094 20.273438 C 53.714844 20.578125 53.484375 20.820312 53.191406 20.996094 C 52.898438 21.171875 52.550781 21.257812 52.148438 21.257812 L 50.703125 21.257812 L 50.703125 17.507812 C 50.703125 17.503906 50.699219 17.476562 50.6875 17.421875 C 50.671875 17.371094 50.660156 17.316406 50.644531 17.261719 C 50.628906 17.207031 50.621094 17.171875 50.617188 17.167969 L 52.15625 17.167969 C 52.570312 17.167969 52.921875 17.253906 53.214844 17.425781 C 53.503906 17.597656 53.726562 17.839844 53.882812 18.148438 C 54.035156 18.453125 54.109375 18.8125 54.109375 19.21875 Z M 53.289062 19.242188 C 53.289062 19.050781 53.269531 18.863281 53.226562 18.683594 C 53.183594 18.503906 53.113281 18.339844 53.019531 18.195312 C 52.925781 18.050781 52.800781 17.933594 52.652344 17.847656 C 52.503906 17.761719 52.320312 17.71875 52.105469 17.71875 L 51.472656 17.71875 L 51.472656 20.707031 L 52.117188 20.707031 C 52.398438 20.707031 52.625 20.636719 52.796875 20.496094 C 52.96875 20.355469 53.09375 20.175781 53.171875 19.949219 C 53.25 19.726562 53.289062 19.492188 53.289062 19.242188 Z M 53.289062 19.242188 "/>
</g>
<g clip-path="url(#clip2)" clip-rule="nonzero">
<path style=" stroke:none;fill-rule:nonzero;fill:rgb(86.27451%,86.27451%,86.27451%);fill-opacity:1;" d="M 12.804688 24.917969 L 12.804688 22.613281 L 13.847656 22.613281 C 14.097656 22.613281 14.316406 22.660156 14.507812 22.757812 C 14.699219 22.851562 14.847656 22.988281 14.953125 23.160156 C 15.058594 23.335938 15.109375 23.535156 15.109375 23.765625 C 15.109375 23.996094 15.058594 24.199219 14.953125 24.371094 C 14.847656 24.546875 14.699219 24.679688 14.507812 24.777344 C 14.316406 24.871094 14.097656 24.917969 13.847656 24.917969 Z M 13.335938 24.480469 L 13.820312 24.480469 C 14.050781 24.480469 14.234375 24.417969 14.371094 24.289062 C 14.507812 24.160156 14.574219 23.988281 14.574219 23.765625 C 14.574219 23.546875 14.507812 23.371094 14.371094 23.246094 C 14.234375 23.117188 14.050781 23.050781 13.820312 23.050781 L 13.335938 23.050781 Z M 24.117188 23.382812 C 24.179688 23.296875 24.261719 23.230469 24.367188 23.1875 C 24.46875 23.144531 24.589844 23.121094 24.722656 23.121094 L 24.722656 23.59375 C 24.667969 23.589844 24.628906 23.589844 24.609375 23.589844 C 24.464844 23.589844 24.347656 23.628906 24.265625 23.710938 C 24.183594 23.792969 24.140625 23.917969 24.140625 24.082031 L 24.140625 24.917969 L 23.628906 24.917969 L 23.628906 23.148438 L 24.117188 23.148438 Z M 33.183594 24.917969 L 33.183594 23.148438 L 33.695312 23.148438 L 33.695312 24.917969 Z M 33.441406 22.898438 C 33.347656 22.898438 33.269531 22.871094 33.210938 22.816406 C 33.152344 22.761719 33.121094 22.695312 33.121094 22.613281 C 33.121094 22.53125 33.152344 22.464844 33.210938 22.410156 C 33.269531 22.355469 33.347656 22.328125 33.441406 22.328125 C 33.535156 22.328125 33.609375 22.351562 33.667969 22.40625 C 33.726562 22.457031 33.757812 22.523438 33.757812 22.605469 C 33.757812 22.6875 33.726562 22.761719 33.667969 22.816406 C 33.609375 22.871094 33.535156 22.898438 33.441406 22.898438 Z M 43.582031 23.148438 L 44.074219 23.148438 L 43.332031 24.917969 L 42.804688 24.917969 L 42.0625 23.148438 L 42.589844 23.148438 L 43.078125 24.351562 Z M 53.277344 24.535156 C 53.371094 24.535156 53.449219 24.519531 53.523438 24.492188 C 53.59375 24.464844 53.660156 24.421875 53.71875 24.363281 L 53.992188 24.660156 C 53.824219 24.851562 53.582031 24.945312 53.265625 24.945312 C 53.066406 24.945312 52.890625 24.90625 52.738281 24.828125 C 52.585938 24.75 52.46875 24.644531 52.382812 24.503906 C 52.300781 24.367188 52.257812 24.210938 52.257812 24.035156 C 52.257812 23.859375 52.300781 23.703125 52.382812 23.5625 C 52.464844 23.425781 52.578125 23.316406 52.71875 23.238281 C 52.863281 23.160156 53.023438 23.121094 53.203125 23.121094 C 53.371094 23.121094 53.523438 23.15625 53.660156 23.226562 C 53.796875 23.300781 53.910156 23.402344 53.992188 23.539062 C 54.070312 23.671875 54.113281 23.832031 54.113281 24.015625 L 52.808594 24.269531 C 52.847656 24.359375 52.90625 24.425781 52.984375 24.46875 C 53.066406 24.511719 53.164062 24.535156 53.277344 24.535156 Z M 53.203125 23.507812 C 53.074219 23.507812 52.96875 23.550781 52.886719 23.636719 C 52.808594 23.71875 52.765625 23.832031 52.761719 23.980469 L 53.617188 23.8125 C 53.59375 23.71875 53.546875 23.648438 53.472656 23.59375 C 53.398438 23.539062 53.308594 23.507812 53.203125 23.507812 Z M 53.203125 23.507812 "/>
</g>
<g clip-path="url(#clip3)" clip-rule="nonzero">
<path style=" stroke:none;fill-rule:nonzero;fill:rgb(100%,25.098039%,34.117647%);fill-opacity:1;" d="M 34.695312 16.066406 L 34.695312 5.007812 L 66.519531 5.007812 L 66.519531 37.027344 L 34.695312 37.027344 L 34.695312 25.964844 L 35.074219 25.964844 L 35.074219 36.644531 L 66.140625 36.644531 L 66.140625 5.390625 L 35.074219 5.390625 L 35.074219 16.066406 Z M 34.695312 16.066406 "/>
</g>
<g clip-path="url(#clip4)" clip-rule="nonzero">
<path style="fill:none;stroke-width:1;stroke-linecap:butt;stroke-linejoin:miter;stroke:rgb(100%,100%,100%);stroke-opacity:1;stroke-miterlimit:4;" d="M 205.073478 94.48577 L 205.073478 29.450707 L 393.391487 29.450707 L 393.391487 217.756045 L 205.073478 217.756045 L 205.073478 152.69801 L 207.315634 152.69801 L 207.315634 215.504743 L 391.149331 215.504743 L 391.149331 31.702009 L 207.315634 31.702009 L 207.315634 94.48577 Z M 205.073478 94.48577 " transform="matrix(0.168992,0,0,0.17004,0.0395552,-0.000000000000001218)"/>
</g>
</g>
</svg>
